<svg width="44" height="50" viewBox="0 0 44 50" fill="none" xmlns="http://www.w3.org/2000/svg">
<g clip-path="url(#clip0_6_2763)">
<path fill-rule="evenodd" clip-rule="evenodd" d="M3.99476 44.955C4.74495 45.4426 20.6864 50 21.793 50C22.8995 50 38.916 45.4801 39.7787 44.955L43.7547 -0.0562744H0L3.99476 44.955Z" fill="#1673B7"/>
<path fill-rule="evenodd" clip-rule="evenodd" d="M8.28961 8.87099H35.6339L33.1208 37.003L21.7555 40.1163L21.3804 40.0038C22.0743 40.7165 21.9055 40.979 21.9055 42.7982C21.9055 43.9235 21.9055 45.0113 21.9055 46.1366C24.3624 46.1366 33.027 42.8545 36.4216 42.3856L39.835 3.76971H21.9618V8.70221L8.28961 8.87099Z" fill="#33A9DC"/>
<path fill-rule="evenodd" clip-rule="evenodd" d="M21.9618 14.4036H29.4636L29.3511 19.1861V20.1988C27.1193 20.8927 24.1373 20.1988 21.8492 20.4614C21.7075 22.1644 21.7832 23.8786 22.0743 25.5626H28.5446C28.5446 27.1193 28.5446 31.4704 27.7569 32.5019C26.5754 33.6272 23.7622 33.7772 22.1305 34.3774C21.767 36.2673 21.6285 38.1937 21.7179 40.1163L33.0833 37.003L35.5964 8.87097H21.6054C21.9663 10.692 22.0548 12.5565 21.868 14.4036H21.9618Z" fill="white"/>
<path fill-rule="evenodd" clip-rule="evenodd" d="M21.3804 40.0038L21.7555 40.1164C21.666 38.1938 21.8045 36.2674 22.1681 34.3774H21.9618L15.8478 32.7645L15.4164 28.526C13.5968 28.2044 11.7423 28.1286 9.90253 28.3009L10.6902 36.8906L21.3804 40.0038Z" fill="#EBEBEB"/>
<path fill-rule="evenodd" clip-rule="evenodd" d="M8.6647 14.291L21.9055 14.4036C22.0923 12.5565 22.0038 10.692 21.6429 8.87097H8.28961L8.6647 14.291Z" fill="#EBEBEB"/>
<path fill-rule="evenodd" clip-rule="evenodd" d="M21.9617 34.3774H22.168C23.8184 33.7773 26.6316 33.6272 27.7944 32.5019C28.4884 31.4704 28.5259 27.1193 28.5821 25.5627H21.7742L21.9617 34.3774Z" fill="#33A9DC"/>
<path fill-rule="evenodd" clip-rule="evenodd" d="M21.9618 20.03L29.0885 19.6549C29.1614 19.4784 29.27 19.3188 29.4074 19.1861L29.5199 14.4036H21.9618L8.72095 14.2911C9.95876 15.0413 19.7299 14.5537 22.018 14.5162L21.9618 20.03Z" fill="#33A9DC"/>
<path fill-rule="evenodd" clip-rule="evenodd" d="M21.9617 20.03H15.4163L15.8477 25.5626H22.1305C21.8394 23.8786 21.7638 22.1644 21.9055 20.4613C24.1373 20.255 27.1193 20.8927 29.4073 20.1988V19.186C29.2699 19.3187 29.1614 19.4783 29.0885 19.6549L21.9617 20.03Z" fill="#EBEBEB"/>
</g>
<defs>
<clipPath id="clip0_6_2763">
<rect width="43.7547" height="50" fill="white"/>
</clipPath>
</defs>
</svg>
