<svg width="45" height="50" viewBox="0 0 45 50" fill="none" xmlns="http://www.w3.org/2000/svg">
<g clip-path="url(#clip0_6_96)">
<path fill-rule="evenodd" clip-rule="evenodd" d="M22.1201 50.0188H22.3265V42.0638C21.3134 41.8574 20.0938 41.3696 19.0807 41.0507C18.0676 40.7317 9.88744 38.3115 9.69982 38.0301V30.1877H17.4672V32.4953L22.1389 33.9587V26.7542H26.8668C25.2942 26.6276 23.7157 26.59 22.1389 26.6417H9.7561L7.87993 8.12385C8.55535 7.84243 20.2064 8.12385 22.1764 8.12385V0.0563354H-0.150085L4.09008 45.0845C5.04693 45.4597 18.4053 49.0057 21.3321 49.8124L22.1201 50.0188Z" fill="#F49631"/>
<path fill-rule="evenodd" clip-rule="evenodd" d="M22.3265 8.06756H35.4597C35.4597 9.13698 35.5723 14.9344 35.4597 15.5723H22.3265V19.0619H35.4597L33.9213 38.6679L22.3828 42.045V50H22.5892L40.1502 45.1032L44.4466 -0.0187378H22.3265V8.06756Z" fill="#EA5236"/>
<path fill-rule="evenodd" clip-rule="evenodd" d="M22.3264 26.6979C23.9033 26.6463 25.4818 26.6839 27.0544 26.8105L26.7917 32.5516L22.3264 34.015L22.439 42.0638L33.9775 38.6867L35.5159 19.0807H22.3827H17.0168C17.5422 19.3434 21.3133 19.0807 22.3827 19.1745L22.3264 26.6979Z" fill="#DEEDF2"/>
<path fill-rule="evenodd" clip-rule="evenodd" d="M22.3265 26.6979V19.1932C21.2571 19.0432 17.4859 19.3621 16.9606 19.0995C16.7482 18.1244 16.6226 17.1323 16.5854 16.1351L16.4728 15.6098C17.9738 15.272 20.6755 15.7036 22.3265 15.6098V8.12384H8.12384L10 26.6417L22.3265 26.6979Z" fill="#FFFFFE"/>
<path fill-rule="evenodd" clip-rule="evenodd" d="M22.3828 42.0638L22.2702 34.015L17.5985 32.5516V30.244H9.83118V38.0863C9.94375 38.3678 17.8612 40.7317 19.212 41.107C20.5629 41.4822 21.4447 41.9137 22.4578 42.1201L22.3828 42.0638Z" fill="#FFFFFE"/>
<path fill-rule="evenodd" clip-rule="evenodd" d="M16.5854 16.0601V15.591H35.4597C35.6286 14.8781 35.5723 9.0807 35.4597 8.08633H22.3265C20.3565 8.08633 8.70551 7.86119 8.03009 8.08633H22.3265V15.4409C20.6755 15.591 17.9738 15.1595 16.4729 15.4409L16.5854 16.0601Z" fill="#DEEDF2"/>
<path fill-rule="evenodd" clip-rule="evenodd" d="M22.3452 33.9963L26.8105 32.5516L27.0732 26.8105H22.3452V33.9963Z" fill="#EA5236"/>
<path fill-rule="evenodd" clip-rule="evenodd" d="M16.5854 16.0601C16.6226 17.0574 16.7482 18.0494 16.9606 19.0244H22.3265V15.5348H16.5854V16.0601Z" fill="#F49631"/>
</g>
<defs>
<clipPath id="clip0_6_96">
<rect width="44.409" height="50" fill="white"/>
</clipPath>
</defs>
</svg>
