<svg width="300" height="100" viewBox="0 0 496 175" fill="none" xmlns="http://www.w3.org/2000/svg">
<path d="M296.986 132.718C296.986 132.818 296.945 132.905 296.863 132.98C296.781 133.055 296.687 133.092 296.583 133.092C296.473 133.092 296.378 133.055 296.296 132.98C296.214 132.905 296.173 132.818 296.173 132.718V131.498C295.307 132.561 294.257 133.092 293.022 133.092C291.938 133.092 291.004 132.739 290.22 132.033C289.446 131.319 289.058 130.468 289.058 129.48C289.058 128.492 289.446 127.64 290.22 126.926C290.999 126.216 291.933 125.861 293.022 125.861C294.257 125.861 295.307 126.393 296.173 127.456V125.17C296.173 125.075 296.214 124.989 296.296 124.915C296.378 124.84 296.473 124.803 296.583 124.803C296.687 124.803 296.781 124.84 296.863 124.915C296.945 124.989 296.986 125.075 296.986 125.17V132.718ZM296.173 129.48C296.173 128.691 295.863 128.016 295.243 127.456C294.623 126.891 293.883 126.609 293.022 126.609C292.161 126.609 291.421 126.891 290.801 127.456C290.181 128.016 289.872 128.691 289.872 129.48C289.872 130.264 290.181 130.939 290.801 131.504C291.421 132.064 292.161 132.345 293.022 132.345C293.879 132.345 294.619 132.064 295.243 131.504C295.863 130.939 296.173 130.264 296.173 129.48Z" fill="#00FF00"/>
<path d="M304.756 127.182C304.756 127.29 304.717 127.379 304.64 127.45L299.918 131.753C300.542 132.147 301.18 132.345 301.831 132.345C302.592 132.345 303.218 132.158 303.71 131.784C303.811 131.705 303.906 131.624 303.998 131.541C304.125 131.442 304.244 131.392 304.353 131.392C304.462 131.392 304.556 131.431 304.633 131.51C304.711 131.585 304.749 131.672 304.749 131.772C304.749 131.942 304.565 132.141 304.196 132.37C303.408 132.851 302.619 133.092 301.831 133.092C300.751 133.092 299.82 132.737 299.036 132.027C298.257 131.313 297.867 130.464 297.867 129.48C297.867 128.492 298.257 127.643 299.036 126.933C299.82 126.218 300.751 125.861 301.831 125.861C302.597 125.861 303.385 126.102 304.196 126.584C304.569 126.812 304.756 127.011 304.756 127.182ZM303.813 127.256C303.189 126.825 302.528 126.609 301.831 126.609C300.961 126.609 300.218 126.889 299.603 127.449C298.988 128.01 298.681 128.687 298.681 129.48C298.681 130.123 298.922 130.721 299.405 131.273L303.813 127.256Z" fill="#00FF00"/>
<path d="M312.417 126.235C312.417 126.285 312.403 126.335 312.376 126.385L309.267 132.774C309.262 132.791 309.255 132.81 309.246 132.83C309.237 132.847 309.228 132.87 309.219 132.899C309.164 133.028 309.039 133.092 308.843 133.092C308.652 133.092 308.529 133.028 308.474 132.899C308.469 132.882 308.463 132.866 308.453 132.849C308.444 132.828 308.435 132.803 308.426 132.774L305.31 126.385C305.287 126.331 305.276 126.281 305.276 126.235C305.276 126.135 305.317 126.048 305.399 125.973C305.481 125.899 305.576 125.861 305.686 125.861C305.863 125.861 305.986 125.936 306.055 126.086L308.843 131.784L311.631 126.086C311.704 125.936 311.829 125.861 312.007 125.861C312.116 125.861 312.212 125.899 312.294 125.973C312.376 126.048 312.417 126.135 312.417 126.235H312.417Z" fill="#00FF00"/>
<path d="M319.203 127.182C319.203 127.29 319.165 127.379 319.087 127.45L314.365 131.753C314.989 132.147 315.627 132.345 316.278 132.345C317.039 132.345 317.666 132.158 318.158 131.784C318.258 131.705 318.354 131.624 318.445 131.541C318.572 131.442 318.691 131.392 318.8 131.392C318.909 131.392 319.003 131.431 319.08 131.51C319.158 131.585 319.196 131.672 319.196 131.772C319.196 131.942 319.012 132.141 318.643 132.37C317.855 132.851 317.067 133.092 316.278 133.092C315.199 133.092 314.267 132.737 313.483 132.027C312.704 131.313 312.315 130.464 312.315 129.48C312.315 128.492 312.704 127.643 313.483 126.933C314.267 126.218 315.199 125.861 316.278 125.861C317.044 125.861 317.832 126.102 318.643 126.584C319.016 126.812 319.203 127.011 319.203 127.182ZM318.26 127.256C317.636 126.825 316.975 126.609 316.278 126.609C315.408 126.609 314.665 126.889 314.05 127.449C313.435 128.01 313.128 128.687 313.128 129.48C313.128 130.123 313.369 130.721 313.852 131.273L318.26 127.256Z" fill="#00FF00"/>
<path d="M321.192 132.718C321.192 132.818 321.151 132.905 321.069 132.98C320.987 133.055 320.891 133.092 320.782 133.092C320.673 133.092 320.577 133.055 320.495 132.98C320.413 132.905 320.372 132.818 320.372 132.718V125.17C320.372 125.075 320.413 124.989 320.495 124.915C320.577 124.84 320.673 124.803 320.782 124.803C320.891 124.803 320.987 124.84 321.069 124.915C321.151 124.989 321.192 125.075 321.192 125.17V132.718Z" fill="#00FF00"/>
<path d="M329.994 129.48C329.994 130.472 329.605 131.323 328.826 132.033C328.051 132.739 327.119 133.092 326.031 133.092C324.946 133.092 324.012 132.739 323.229 132.033C322.454 131.319 322.067 130.468 322.067 129.48C322.067 128.492 322.454 127.64 323.229 126.926C324.008 126.216 324.942 125.861 326.031 125.861C327.119 125.861 328.051 126.216 328.826 126.926C329.605 127.636 329.994 128.487 329.994 129.48ZM329.181 129.48C329.181 128.691 328.871 128.016 328.252 127.456C327.632 126.891 326.892 126.609 326.031 126.609C325.169 126.609 324.429 126.891 323.809 127.456C323.19 128.016 322.88 128.691 322.88 129.48C322.88 130.265 323.19 130.939 323.809 131.504C324.429 132.064 325.169 132.345 326.031 132.345C326.887 132.345 327.627 132.064 328.252 131.504C328.871 130.939 329.181 130.265 329.181 129.48Z" fill="#00FF00"/>
<path d="M338.803 129.48C338.803 130.472 338.414 131.323 337.635 132.033C336.86 132.739 335.929 133.092 334.84 133.092C333.605 133.092 332.555 132.561 331.689 131.498V134.836C331.689 134.935 331.648 135.023 331.566 135.097C331.484 135.172 331.388 135.209 331.279 135.209C331.17 135.209 331.074 135.172 330.992 135.097C330.91 135.023 330.869 134.935 330.869 134.836V126.235C330.869 126.135 330.91 126.048 330.992 125.973C331.074 125.899 331.17 125.861 331.279 125.861C331.388 125.861 331.484 125.899 331.566 125.973C331.648 126.048 331.689 126.135 331.689 126.235V127.456C332.55 126.393 333.6 125.861 334.84 125.861C335.929 125.861 336.86 126.216 337.635 126.926C338.414 127.636 338.803 128.487 338.803 129.48ZM337.983 129.48C337.983 128.691 337.673 128.016 337.054 127.456C336.439 126.891 335.701 126.609 334.84 126.609C333.974 126.609 333.231 126.891 332.612 127.456C331.997 128.016 331.689 128.691 331.689 129.48C331.689 130.265 331.997 130.939 332.612 131.504C333.231 132.064 333.974 132.345 334.84 132.345C335.701 132.345 336.439 132.064 337.054 131.504C337.673 130.939 337.983 130.265 337.983 129.48Z" fill="#00FF00"/>
<path d="M350.531 132.718C350.531 132.818 350.49 132.905 350.408 132.98C350.326 133.055 350.23 133.092 350.12 133.092C350.011 133.092 349.915 133.055 349.833 132.98C349.751 132.905 349.71 132.818 349.71 132.718V128.521C349.71 128.002 349.503 127.553 349.089 127.175C348.674 126.798 348.182 126.609 347.612 126.609C347.043 126.609 346.551 126.798 346.136 127.175C345.722 127.553 345.514 128.002 345.514 128.521V132.718C345.514 132.818 345.473 132.905 345.391 132.98C345.309 133.055 345.214 133.092 345.104 133.092C344.995 133.092 344.899 133.055 344.817 132.98C344.735 132.905 344.694 132.818 344.694 132.718V128.521C344.694 128.002 344.487 127.553 344.072 127.175C343.658 126.798 343.166 126.609 342.596 126.609C342.027 126.609 341.535 126.798 341.12 127.175C340.705 127.553 340.498 128.002 340.498 128.521V132.718C340.498 132.818 340.457 132.905 340.375 132.98C340.293 133.055 340.197 133.092 340.088 133.092C339.979 133.092 339.883 133.055 339.801 132.98C339.719 132.905 339.678 132.818 339.678 132.718V126.235C339.678 126.135 339.719 126.048 339.801 125.973C339.883 125.899 339.979 125.861 340.088 125.861C340.316 125.861 340.448 125.98 340.484 126.216C340.489 126.233 340.491 126.289 340.491 126.385C340.496 126.476 340.498 126.611 340.498 126.789C341.136 126.171 341.835 125.861 342.596 125.861C343.726 125.861 344.562 126.407 345.104 127.499C345.646 126.407 346.482 125.861 347.612 125.861C348.414 125.861 349.1 126.123 349.669 126.646C350.243 127.165 350.53 127.79 350.53 128.521L350.531 132.718Z" fill="#00FF00"/>
<path d="M358.294 127.182C358.294 127.29 358.255 127.379 358.178 127.45L353.456 131.753C354.08 132.147 354.718 132.345 355.369 132.345C356.13 132.345 356.756 132.158 357.248 131.784C357.349 131.705 357.444 131.624 357.535 131.541C357.663 131.442 357.781 131.392 357.891 131.392C358 131.392 358.094 131.431 358.171 131.51C358.248 131.585 358.287 131.672 358.287 131.772C358.287 131.942 358.103 132.141 357.734 132.37C356.945 132.851 356.157 133.092 355.369 133.092C354.289 133.092 353.358 132.737 352.574 132.027C351.795 131.313 351.405 130.464 351.405 129.48C351.405 128.492 351.795 127.643 352.574 126.933C353.358 126.218 354.289 125.861 355.369 125.861C356.134 125.861 356.923 126.102 357.734 126.584C358.107 126.812 358.294 127.011 358.294 127.182ZM357.351 127.256C356.727 126.825 356.066 126.609 355.369 126.609C354.499 126.609 353.756 126.889 353.141 127.449C352.526 128.01 352.219 128.687 352.219 129.48C352.219 130.123 352.46 130.721 352.943 131.273L357.351 127.256Z" fill="#00FF00"/>
<path d="M367.397 132.718C367.397 132.818 367.356 132.905 367.274 132.98C367.192 133.055 367.096 133.092 366.987 133.092C366.878 133.092 366.782 133.055 366.7 132.98C366.618 132.905 366.577 132.818 366.577 132.718V129.48C366.577 128.691 366.267 128.016 365.647 127.456C365.032 126.891 364.294 126.609 363.433 126.609C362.568 126.609 361.825 126.891 361.205 127.456C360.59 128.016 360.283 128.691 360.283 129.48V132.718C360.283 132.818 360.242 132.905 360.16 132.98C360.078 133.055 359.982 133.092 359.873 133.092C359.763 133.092 359.668 133.055 359.586 132.98C359.504 132.905 359.463 132.818 359.463 132.718V126.235C359.463 126.135 359.504 126.048 359.586 125.973C359.668 125.899 359.763 125.861 359.873 125.861C359.982 125.861 360.078 125.899 360.16 125.973C360.242 126.048 360.283 126.135 360.283 126.235V127.45C361.185 126.391 362.269 125.861 363.536 125.861C364.602 125.861 365.511 126.223 366.263 126.945C367.019 127.659 367.397 128.504 367.397 129.48V132.718Z" fill="#00FF00"/>
<path d="M373.172 132.718C373.172 132.818 373.131 132.905 373.049 132.98C372.967 133.055 372.871 133.092 372.762 133.092H370.192C370.083 133.092 369.987 133.055 369.905 132.98C369.828 132.905 369.789 132.818 369.789 132.718V126.609H368.504C368.395 126.609 368.299 126.571 368.217 126.497C368.135 126.422 368.094 126.335 368.094 126.235C368.094 126.135 368.135 126.048 368.217 125.973C368.299 125.899 368.395 125.861 368.504 125.861H369.789V125.17C369.789 125.075 369.828 124.989 369.905 124.915C369.987 124.84 370.083 124.803 370.192 124.803C370.301 124.803 370.397 124.84 370.479 124.915C370.561 124.989 370.602 125.075 370.602 125.17V125.861H371.887C371.996 125.861 372.092 125.899 372.174 125.973C372.256 126.048 372.297 126.135 372.297 126.235C372.297 126.335 372.256 126.422 372.174 126.497C372.092 126.571 371.996 126.609 371.887 126.609H370.602V132.345H372.762C372.871 132.345 372.967 132.382 373.049 132.457C373.131 132.531 373.172 132.619 373.172 132.718Z" fill="#00FF00"/>
<path d="M382.835 131.093C382.835 131.641 382.621 132.11 382.193 132.5C381.76 132.895 381.247 133.092 380.655 133.092C380.272 133.092 379.906 133.007 379.555 132.837C379.186 132.654 378.921 132.409 378.762 132.102C378.726 132.015 378.707 131.948 378.707 131.902C378.707 131.811 378.748 131.728 378.83 131.653C378.912 131.579 379.004 131.541 379.104 131.541C379.204 131.541 379.398 131.676 379.685 131.946C379.972 132.212 380.295 132.345 380.655 132.345C381.029 132.345 381.35 132.222 381.619 131.977C381.888 131.724 382.022 131.429 382.022 131.093C382.022 130.752 381.888 130.46 381.619 130.215C381.35 129.97 381.029 129.847 380.655 129.847C380.054 129.847 379.539 129.654 379.111 129.268C378.687 128.878 378.475 128.409 378.475 127.861C378.475 127.317 378.687 126.847 379.111 126.453C379.543 126.059 380.058 125.861 380.655 125.861C381.033 125.861 381.402 125.953 381.762 126.135C382.127 126.318 382.386 126.557 382.541 126.852C382.582 126.922 382.603 126.987 382.603 127.045C382.603 127.144 382.562 127.232 382.48 127.306C382.398 127.381 382.302 127.418 382.193 127.418C382.097 127.418 381.908 127.283 381.625 127.014C381.352 126.744 381.029 126.609 380.655 126.609C380.277 126.609 379.956 126.733 379.691 126.982C379.423 127.227 379.288 127.52 379.288 127.861C379.288 128.201 379.423 128.494 379.691 128.739C379.96 128.984 380.281 129.106 380.655 129.106C381.252 129.106 381.764 129.301 382.193 129.692C382.621 130.082 382.835 130.549 382.835 131.093Z" fill="#00FF00"/>
<path d="M391.35 129.48C391.35 130.472 390.961 131.323 390.182 132.033C389.407 132.739 388.475 133.092 387.387 133.092C386.302 133.092 385.368 132.739 384.585 132.033C383.81 131.319 383.423 130.468 383.423 129.48C383.423 128.492 383.81 127.64 384.585 126.926C385.364 126.216 386.298 125.861 387.387 125.861C388.475 125.861 389.407 126.216 390.182 126.926C390.961 127.636 391.35 128.487 391.35 129.48ZM390.537 129.48C390.537 128.691 390.227 128.016 389.608 127.456C388.988 126.891 388.248 126.609 387.387 126.609C386.526 126.609 385.785 126.891 385.166 127.456C384.546 128.016 384.236 128.691 384.236 129.48C384.236 130.265 384.546 130.939 385.166 131.504C385.785 132.064 386.526 132.345 387.387 132.345C388.243 132.345 388.983 132.064 389.608 131.504C390.227 130.939 390.537 130.265 390.537 129.48Z" fill="#00FF00"/>
<path d="M393.045 132.718C393.045 132.818 393.004 132.905 392.922 132.98C392.84 133.055 392.745 133.092 392.635 133.092C392.526 133.092 392.43 133.055 392.348 132.98C392.266 132.905 392.225 132.818 392.225 132.718V125.17C392.225 125.075 392.266 124.989 392.348 124.915C392.43 124.84 392.526 124.803 392.635 124.803C392.745 124.803 392.84 124.84 392.922 124.915C393.004 124.989 393.045 125.075 393.045 125.17V132.718Z" fill="#00FF00"/>
<path d="M402.141 132.718C402.141 132.818 402.1 132.905 402.018 132.98C401.936 133.055 401.841 133.092 401.731 133.092C401.622 133.092 401.526 133.055 401.444 132.98C401.362 132.905 401.321 132.818 401.321 132.718V131.51C400.419 132.565 399.335 133.092 398.068 133.092C397.007 133.092 396.095 132.733 395.335 132.015C394.583 131.292 394.207 130.447 394.207 129.48V126.235C394.207 126.135 394.248 126.048 394.33 125.973C394.412 125.899 394.508 125.861 394.617 125.861C394.726 125.861 394.822 125.899 394.904 125.973C394.986 126.048 395.027 126.135 395.027 126.235V129.48C395.027 130.265 395.335 130.939 395.95 131.504C396.569 132.064 397.312 132.345 398.178 132.345C399.039 132.345 399.777 132.064 400.392 131.504C401.011 130.939 401.321 130.265 401.321 129.48V126.235C401.321 126.135 401.362 126.048 401.444 125.973C401.526 125.899 401.622 125.861 401.731 125.861C401.841 125.861 401.936 125.899 402.018 125.973C402.1 126.048 402.141 126.135 402.141 126.235V132.718Z" fill="#00FF00"/>
<path d="M407.916 132.718C407.916 132.818 407.875 132.905 407.793 132.98C407.711 133.055 407.615 133.092 407.506 133.092H404.936C404.827 133.092 404.731 133.055 404.649 132.98C404.572 132.905 404.533 132.818 404.533 132.718V126.609H403.248C403.139 126.609 403.043 126.571 402.961 126.497C402.879 126.422 402.838 126.335 402.838 126.235C402.838 126.135 402.879 126.048 402.961 125.973C403.043 125.899 403.139 125.861 403.248 125.861H404.533V125.17C404.533 125.075 404.572 124.989 404.649 124.915C404.731 124.84 404.827 124.803 404.936 124.803C405.046 124.803 405.141 124.84 405.223 124.915C405.305 124.989 405.346 125.075 405.346 125.17V125.861H406.631C406.741 125.861 406.836 125.899 406.918 125.973C407 126.048 407.041 126.135 407.041 126.235C407.041 126.335 407 126.422 406.918 126.497C406.836 126.571 406.741 126.609 406.631 126.609H405.346V132.345H407.506C407.615 132.345 407.711 132.382 407.793 132.457C407.875 132.531 407.916 132.619 407.916 132.718Z" fill="#00FF00"/>
<path d="M409.31 132.718C409.31 132.818 409.269 132.905 409.187 132.98C409.105 133.055 409.009 133.092 408.9 133.092C408.791 133.092 408.695 133.055 408.613 132.98C408.531 132.905 408.49 132.818 408.49 132.718V126.235C408.49 126.135 408.531 126.048 408.613 125.973C408.695 125.899 408.791 125.861 408.9 125.861C409.009 125.861 409.105 125.899 409.187 125.973C409.269 126.048 409.31 126.135 409.31 126.235V132.718Z" fill="#00FF00"/>
<path d="M418.112 129.48C418.112 130.472 417.723 131.323 416.944 132.033C416.169 132.739 415.238 133.092 414.149 133.092C413.064 133.092 412.13 132.739 411.347 132.033C410.572 131.319 410.185 130.468 410.185 129.48C410.185 128.492 410.572 127.64 411.347 126.926C412.126 126.216 413.06 125.861 414.149 125.861C415.238 125.861 416.169 126.216 416.944 126.926C417.723 127.636 418.112 128.487 418.112 129.48ZM417.299 129.48C417.299 128.691 416.989 128.016 416.37 127.456C415.75 126.891 415.01 126.609 414.149 126.609C413.288 126.609 412.547 126.891 411.928 127.456C411.308 128.016 410.998 128.691 410.998 129.48C410.998 130.265 411.308 130.939 411.928 131.504C412.547 132.064 413.288 132.345 414.149 132.345C415.005 132.345 415.746 132.064 416.37 131.504C416.989 130.939 417.299 130.265 417.299 129.48Z" fill="#00FF00"/>
<path d="M426.922 132.718C426.922 132.818 426.881 132.905 426.799 132.98C426.717 133.055 426.621 133.092 426.512 133.092C426.402 133.092 426.307 133.055 426.225 132.98C426.143 132.905 426.102 132.818 426.102 132.718V129.48C426.102 128.691 425.792 128.016 425.172 127.456C424.557 126.891 423.819 126.609 422.958 126.609C422.092 126.609 421.35 126.891 420.73 127.456C420.115 128.016 419.807 128.691 419.807 129.48V132.718C419.807 132.818 419.766 132.905 419.684 132.98C419.602 133.055 419.507 133.092 419.397 133.092C419.288 133.092 419.192 133.055 419.11 132.98C419.028 132.905 418.987 132.818 418.987 132.718V126.235C418.987 126.135 419.028 126.048 419.11 125.973C419.192 125.899 419.288 125.861 419.397 125.861C419.507 125.861 419.602 125.899 419.684 125.973C419.766 126.048 419.807 126.135 419.807 126.235V127.45C420.709 126.391 421.794 125.861 423.06 125.861C424.127 125.861 425.035 126.223 425.787 126.945C426.543 127.659 426.922 128.504 426.922 129.48V132.718Z" fill="#00FF00"/>
<path d="M172.295 123.134C175.249 123.134 178.279 122.763 181.386 122.02C184.492 121.278 187.267 120.071 189.712 118.4V97.0979C189.712 95.2416 190.731 94.3132 192.768 94.3132H206.365C207.079 94.3132 207.74 94.4988 208.352 94.87C208.963 95.2416 209.268 95.9841 209.268 97.0979V128.703C209.268 129.91 208.759 130.931 207.74 131.767C203.157 134.644 197.835 137.057 191.775 139.007C185.714 140.956 179.221 141.93 172.295 141.93C164.248 141.93 156.66 140.538 149.53 137.753C142.4 134.969 136.162 131.163 130.814 126.337C129.983 125.586 129.178 124.814 128.402 124.023C128.875 119.26 129.026 114.277 129.041 109.102L129.033 52.6281C129.564 52.1033 130.107 51.5878 130.662 51.0818C135.908 46.3016 142.095 42.5421 149.225 39.804C156.355 37.0658 163.943 35.6968 171.99 35.6968C178.916 35.6968 185.129 36.6017 190.629 38.4118C196.13 40.2218 201.324 42.7977 206.213 46.139C207.028 46.6959 207.486 47.2994 207.588 47.949C207.69 48.5988 207.486 49.2022 206.977 49.7591L197.963 61.5938C197.454 62.0579 196.842 62.3829 196.13 62.5685C195.416 62.7541 194.602 62.5685 193.685 62.0116C190.731 59.9694 187.497 58.322 183.983 57.0688C180.469 55.8156 176.573 55.1892 172.295 55.1892C166.999 55.1892 162.084 56.0479 157.552 57.7651C153.019 59.4821 149.098 61.8489 145.788 64.8656C142.477 67.8825 139.88 71.4096 137.996 75.4474C136.111 79.4851 135.169 83.871 135.169 88.6048C135.169 93.3387 136.137 97.8172 138.072 102.041C140.007 106.264 142.63 109.954 145.94 113.11C149.251 116.265 153.172 118.748 157.705 120.558C162.237 122.368 167.101 123.227 172.295 123.134H172.295Z" fill="url(#paint0_linear_2_40)"/>
<path d="M191.952 120.441V99.1386C191.952 97.2822 192.97 96.3539 195.007 96.3539H204.126C204.839 96.3539 205.501 96.5395 206.112 96.9107C206.723 97.2822 207.029 98.0248 207.029 99.1386V128.703C207.029 129.91 206.52 130.931 205.501 131.767C200.918 134.644 197.835 137.057 191.775 139.007C191.775 139.007 168.623 136.133 191.952 120.441Z" fill="url(#paint1_linear_2_40)"/>
<path d="M125.661 0.657601C109.707 0.495769 90.4735 10.0645 82.4723 23.0969C74.9943 35.2769 76.4942 44.7265 76.4985 58.7198L76.3035 126.614C76.5224 132.163 74.2775 143.849 72.6023 148.983C70.978 153.963 67.2797 162.6 63.297 165.887C64.1165 166.677 65.7111 167.023 67.0001 167.439C71.8454 169.003 76.65 169.119 81.7975 168.98C88.4466 168.799 94.1656 167.351 99.2402 164.961C100.589 164.326 101.595 163.885 102.695 163.185C123.033 150.233 125.611 131.464 125.677 109.102L125.661 0.657601Z" fill="url(#paint2_linear_2_40)"/>
<path d="M123.422 2.69849C107.765 4.84755 92.7129 12.1054 84.7117 25.1378C77.2337 37.3178 78.7335 46.7674 78.7379 60.7607L79.2844 106.553C100.337 109.433 102.037 109.394 123.437 109.102L123.422 2.69849Z" fill="url(#paint3_linear_2_40)"/>
<path fill-rule="evenodd" clip-rule="evenodd" d="M120.235 143.551C94.9325 179.244 46.8445 166.269 46.5652 131.413C46.8573 130.721 46.7549 130.653 46.3484 130.023L0.548308 129.996C-1.48427 180.343 97.8148 192.509 120.235 143.551Z" fill="#00FF00"/>
<path fill-rule="evenodd" clip-rule="evenodd" d="M120.235 143.552C94.9325 179.244 44.6051 168.31 44.3259 133.453C44.283 132.894 44.2478 132.897 44.109 132.064L2.78771 132.037C1.82108 175.594 97.8148 192.509 120.235 143.552Z" fill="url(#paint4_linear_2_40)"/>
<path d="M283.178 102.102C283.178 102.867 282.301 103.791 280.546 104.875C276.705 107.238 272.824 108.42 268.905 108.42C263.581 108.42 259.008 106.678 255.186 103.195C251.365 99.7123 249.454 95.5363 249.454 90.6673C249.454 85.816 251.365 81.6488 255.186 78.1659C259.008 74.6829 263.581 72.9414 268.905 72.9414C272.824 72.9414 276.705 74.1231 280.546 76.4866C282.301 77.5883 283.178 78.5124 283.178 79.2587C283.178 79.6852 283.003 80.0584 282.652 80.3783C282.32 80.6981 281.921 80.8581 281.453 80.8581C280.985 80.8581 280.468 80.627 279.902 80.165C279.669 79.9873 279.435 79.8096 279.201 79.6319C278.986 79.4542 278.772 79.2676 278.557 79.0722C275.983 77.0997 272.766 76.1134 268.905 76.1134C264.556 76.1134 260.802 77.5528 257.643 80.4316C254.504 83.2926 252.934 86.7045 252.934 90.6673C252.934 94.6478 254.504 98.0686 257.643 100.93C260.822 103.791 264.576 105.221 268.905 105.221C272.746 105.221 275.964 104.244 278.557 102.289C278.772 102.111 278.996 101.916 279.23 101.703C279.483 101.489 279.727 101.294 279.961 101.116C280.214 100.938 280.468 100.796 280.721 100.69C280.975 100.565 281.219 100.503 281.453 100.503C281.921 100.503 282.32 100.663 282.652 100.983C283.003 101.303 283.178 101.676 283.178 102.102Z" fill="white"/>
<path d="M325.883 90.6673C325.883 95.5185 323.962 99.6946 320.121 103.195C316.299 106.678 311.726 108.42 306.403 108.42C301.079 108.42 296.507 106.678 292.685 103.195C288.863 99.7123 286.952 95.5363 286.952 90.6673C286.952 85.816 288.863 81.6488 292.685 78.1659C296.507 74.6829 301.079 72.9414 306.403 72.9414C311.726 72.9414 316.299 74.6829 320.121 78.1659C323.962 81.6666 325.883 85.8337 325.883 90.6673ZM322.373 90.6673C322.373 86.6689 320.813 83.2482 317.693 80.4049C314.554 77.5439 310.79 76.1134 306.403 76.1134C302.015 76.1134 298.252 77.5439 295.112 80.4049C291.992 83.2482 290.432 86.6689 290.432 90.6673C290.432 94.6833 291.992 98.113 295.112 100.956C298.232 103.799 301.996 105.221 306.403 105.221C310.81 105.221 314.573 103.799 317.693 100.956C320.813 98.113 322.373 94.6833 322.373 90.6673Z" fill="white"/>
<path d="M364.083 90.6673C364.083 95.5185 362.162 99.6946 358.321 103.195C354.499 106.678 349.926 108.42 344.603 108.42H329.627V72.9414H344.603C349.926 72.9414 354.499 74.6829 358.321 78.1659C362.162 81.6666 364.083 85.8337 364.083 90.6673ZM360.602 90.6673C360.602 86.7045 359.023 83.2926 355.864 80.4316C352.725 77.5528 348.971 76.1134 344.603 76.1134H333.137V105.221H344.603C348.971 105.221 352.725 103.791 355.864 100.93C359.023 98.0863 360.602 94.6656 360.602 90.6673Z" fill="white"/>
<path d="M371.337 106.82C371.337 107.247 371.162 107.62 370.811 107.94C370.46 108.26 370.05 108.42 369.582 108.42C369.114 108.42 368.705 108.26 368.354 107.94C368.003 107.62 367.827 107.247 367.827 106.82V74.5141C367.827 74.1054 368.003 73.7411 368.354 73.4212C368.705 73.1013 369.114 72.9414 369.582 72.9414C370.05 72.9414 370.46 73.1013 370.811 73.4212C371.162 73.7411 371.337 74.1054 371.337 74.5141V106.82Z" fill="white"/>
<path d="M410.268 106.82C410.268 107.247 410.093 107.62 409.742 107.94C409.391 108.26 408.982 108.42 408.514 108.42C408.046 108.42 407.548 108.144 407.022 107.593L379.82 78.9922V106.82C379.82 107.247 379.644 107.62 379.293 107.94C378.942 108.26 378.533 108.42 378.065 108.42C377.597 108.42 377.187 108.26 376.836 107.94C376.485 107.62 376.31 107.247 376.31 106.82V74.5141C376.31 74.1054 376.485 73.7411 376.836 73.4212C377.187 73.1013 377.597 72.9414 378.065 72.9414C378.572 72.9414 378.971 73.0925 379.264 73.3945L406.759 102.369V74.5141C406.759 74.1054 406.934 73.7411 407.285 73.4212C407.636 73.1013 408.046 72.9414 408.514 72.9414C408.982 72.9414 409.391 73.1013 409.742 73.4212C410.093 73.7411 410.268 74.1054 410.268 74.5141V106.82Z" fill="white"/>
<path d="M448.41 106.82C448.41 107.247 448.235 107.62 447.884 107.94C447.533 108.26 447.123 108.42 446.655 108.42C445.719 108.42 445.154 107.904 444.959 106.874C444.939 106.749 444.92 106.474 444.9 106.047C444.9 105.603 444.9 104.999 444.9 104.235C441.527 107.025 437.714 108.42 433.464 108.42C428.14 108.42 423.567 106.678 419.745 103.195C415.923 99.7123 414.012 95.5363 414.012 90.6673C414.012 85.816 415.923 81.6488 419.745 78.1659C423.567 74.6829 428.14 72.9414 433.464 72.9414C437.324 72.9414 441.205 74.1231 445.105 76.4866C446.86 77.5528 447.737 78.4768 447.737 79.2587C447.737 79.6852 447.562 80.0584 447.211 80.3783C446.879 80.6981 446.48 80.8581 446.012 80.8581C445.758 80.8581 445.505 80.8048 445.251 80.6981C445.017 80.5737 444.773 80.4227 444.52 80.245C444.286 80.0673 444.052 79.8807 443.818 79.6852C443.603 79.472 443.379 79.2676 443.145 79.0722C440.649 77.0997 437.422 76.1134 433.464 76.1134C429.115 76.1134 425.361 77.5528 422.202 80.4316C419.063 83.2926 417.493 86.7045 417.493 90.6673C417.493 94.6478 419.063 98.0686 422.202 100.93C425.381 103.791 429.135 105.221 433.464 105.221C437.636 105.221 441.449 103.755 444.9 100.823V92.2666H430.714C430.266 92.2666 429.866 92.1066 429.515 91.7868C429.164 91.4669 428.988 91.0937 428.988 90.6673C428.988 90.2408 429.164 89.8765 429.515 89.5744C429.866 89.2545 430.266 89.0946 430.714 89.0946H446.655C447.123 89.0946 447.533 89.2545 447.884 89.5744C448.235 89.8765 448.41 90.2408 448.41 90.6673L448.41 106.82Z" fill="white"/>
<path fill-rule="evenodd" clip-rule="evenodd" d="M477.409 70.6699L477.586 70.8704L457.324 111.084H452.332L472.161 70.6699H477.409Z" fill="#4D4D4D"/>
<path fill-rule="evenodd" clip-rule="evenodd" d="M480.711 74.8003L495.412 91.2718L480.587 107.882L480.466 107.746L478.17 103.05L488.538 91.4329L478.202 79.8516L480.711 74.8003Z" fill="#4D4D4D"/>
<path fill-rule="evenodd" clip-rule="evenodd" d="M239.011 74.8003L224.31 91.2718L239.135 107.882L239.256 107.746L241.552 103.05L231.184 91.4329L241.52 79.8516L239.011 74.8003Z" fill="#4D4D4D"/>
<path d="M128.401 124.023C128.875 119.26 129.025 114.277 129.041 109.102L129.147 55.4572C129.678 54.9324 130.221 54.4169 130.776 53.9109C136.022 49.1308 142.095 44.5828 149.225 41.8446C156.355 39.1064 163.943 37.7375 171.989 37.7375C178.916 37.7375 185.129 38.6424 190.629 40.4524C196.129 42.2625 198.219 43.489 203.108 46.8304C203.923 47.3873 204.381 47.9908 204.483 48.6404C204.585 49.2902 204.381 49.8936 203.871 50.4505L197.595 60.5604C197.086 61.0244 196.475 61.3494 195.762 61.535C195.049 61.7207 194.234 61.535 193.317 60.9781C190.364 58.9359 187.497 58.3219 183.983 57.0687C180.469 55.8155 176.573 55.1891 172.295 55.1891C166.998 55.1891 162.084 56.0478 157.551 57.765C153.019 59.482 149.097 61.8488 145.787 64.8655C142.477 67.8824 139.88 71.4095 137.995 75.4473C136.111 79.485 135.169 83.8708 135.169 88.6047C135.169 93.3386 136.136 97.8171 138.072 102.041C137.076 110.927 138.126 115.458 128.401 124.023H128.401Z" fill="url(#paint5_linear_2_40)"/>
<defs>
<linearGradient id="paint0_linear_2_40" x1="128.402" y1="35.6968" x2="128.402" y2="141.93" gradientUnits="userSpaceOnUse">
<stop stop-color="#00FF00"/>
<stop offset="1" stop-color="#009E00"/>
</linearGradient>
<linearGradient id="paint1_linear_2_40" x1="128.402" y1="35.6967" x2="128.402" y2="141.93" gradientUnits="userSpaceOnUse">
<stop stop-color="#ADFF00"/>
<stop offset="1" stop-color="#ADFF00" stop-opacity="0"/>
</linearGradient>
<linearGradient id="paint2_linear_2_40" x1="63.297" y1="0.655576" x2="63.297" y2="169.023" gradientUnits="userSpaceOnUse">
<stop stop-color="#00FF00"/>
<stop offset="1" stop-color="#009E00"/>
</linearGradient>
<linearGradient id="paint3_linear_2_40" x1="111.073" y1="4.27158" x2="106.291" y2="107.792" gradientUnits="userSpaceOnUse">
<stop stop-color="#ADFF00"/>
<stop offset="1" stop-color="#ADFF00" stop-opacity="0"/>
</linearGradient>
<linearGradient id="paint4_linear_2_40" x1="23.5486" y1="129.272" x2="30.6607" y2="162.82" gradientUnits="userSpaceOnUse">
<stop stop-color="#ADFF00"/>
<stop offset="1" stop-color="#ADFF00" stop-opacity="0"/>
</linearGradient>
<linearGradient id="paint5_linear_2_40" x1="128.401" y1="35.6967" x2="130.028" y2="94.8087" gradientUnits="userSpaceOnUse">
<stop stop-color="#ADFF00"/>
<stop offset="1" stop-color="#ADFF00" stop-opacity="0"/>
</linearGradient>
</defs>
</svg>
