<svg width="50" height="50" viewBox="0 0 50 50" fill="none" xmlns="http://www.w3.org/2000/svg">
<ellipse cx="25.3125" cy="25.625" rx="22.3958" ry="15.1302" fill="black"/>
<path fill-rule="evenodd" clip-rule="evenodd" d="M22.9316 0.0866591C18.5703 0.476747 14.3933 1.96338 10.886 4.37374C8.35783 6.11121 6.09584 8.3732 4.35837 10.9014C0.185931 16.9726 -1.08393 24.7947 0.953594 31.8736C2.89643 38.6236 7.52642 44.215 13.7609 47.3403C16.0751 48.5004 18.239 49.2154 20.7778 49.6591C23.3764 50.1133 26.6533 50.1136 29.2322 49.66C37.0265 48.2889 43.7005 43.375 47.2534 36.3916C49.1437 32.6763 49.9788 29.1708 49.9726 24.9781C49.9697 22.9841 49.8435 21.6813 49.4841 19.9362C48.0116 12.7847 43.4642 6.65137 36.968 3.05527C32.8571 0.779586 27.6046 -0.331329 22.9316 0.0866591ZM33.9551 15.3096C33.5714 15.8843 33.2364 16.3736 33.2105 16.3968C33.1247 16.474 32.7831 16.9809 32.7831 17.0311C32.7831 17.0581 32.7355 17.1371 32.6774 17.2065C32.6193 17.2759 32.5335 17.3789 32.4867 17.4354C32.44 17.4919 32.2498 17.7662 32.064 18.0448C31.74 18.5309 31.6892 18.6005 31.4515 18.8844C31.3934 18.9538 31.3458 19.0444 31.3458 19.0857C31.3458 19.1271 31.2792 19.2393 31.1979 19.3351C31.1165 19.4309 30.9928 19.5933 30.9231 19.6959C30.8533 19.7986 30.7296 19.9699 30.6483 20.0764C30.567 20.183 30.5004 20.2955 30.5004 20.3264C30.5004 20.3572 30.4528 20.4322 30.3947 20.4929C30.3366 20.5536 30.2415 20.6746 30.1835 20.7616C29.9699 21.0819 29.0864 22.3732 28.7156 22.9067C28.5056 23.209 28.1365 23.7403 27.8953 24.0875C27.4246 24.7649 27.3866 24.8948 27.5839 25.1511C27.9626 25.6432 28.8145 26.8088 29.064 27.1762C29.2218 27.4087 29.3908 27.6418 29.4395 27.6942C29.4883 27.7467 29.576 27.8609 29.6346 27.9479C29.6933 28.0349 29.9306 28.3725 30.1622 28.698C30.3938 29.0235 30.6311 29.3611 30.6897 29.4482C30.7483 29.5352 30.8343 29.6504 30.8808 29.7041C31.0317 29.8783 31.3458 30.3385 31.3458 30.3855C31.3458 30.4106 31.1638 30.4312 30.9413 30.4312C30.5815 30.4312 30.5202 30.4031 30.387 30.1776C30.3046 30.0381 30.2012 29.9239 30.1574 29.9239C30.1136 29.9239 30.0776 29.8844 30.0776 29.836C30.0776 29.7589 29.7745 29.2788 29.6527 29.163C29.5481 29.0635 29.0631 28.4162 29.0631 28.376C29.0631 28.3517 28.988 28.2431 28.8962 28.1345C28.7275 27.935 27.5928 26.3441 27.2031 25.7607C26.9645 25.4034 26.8578 25.3688 26.737 25.6095C26.6911 25.7011 26.3492 26.1915 25.9772 26.6992C24.8011 28.3047 23.8666 29.5934 23.7791 29.7303C23.7326 29.8032 23.6089 29.9582 23.5043 30.0748C23.3997 30.1913 23.3141 30.3193 23.3141 30.359C23.3141 30.3987 23.1429 30.4312 22.9336 30.4312C22.6518 30.4312 22.5532 30.3983 22.5532 30.3044C22.5532 30.2346 22.5871 30.1776 22.6286 30.1776C22.67 30.1776 22.7279 30.0824 22.757 29.9662C22.7862 29.8499 22.8411 29.7548 22.8789 29.7548C22.9168 29.7548 23.0966 29.5361 23.2785 29.2687C23.4603 29.0013 23.6474 28.7397 23.6941 28.6873C23.7409 28.6348 23.8361 28.5067 23.9059 28.4025C24.0083 28.2498 24.7019 27.2948 25.718 25.9081C26.4311 24.935 26.563 24.6822 26.3577 24.6822C26.3112 24.6822 26.2731 24.6283 26.2731 24.5624C26.2731 24.4965 26.2432 24.43 26.2066 24.4144C26.146 24.3887 25.2474 23.1643 25.0472 22.8346C25.0007 22.758 24.9411 22.6763 24.9149 22.6531C24.8886 22.6299 24.7397 22.4206 24.584 22.1881C24.4284 21.9556 24.2311 21.6973 24.1457 21.6141C24.0604 21.5309 23.9904 21.4073 23.9904 21.3394C23.9904 21.2714 23.9555 21.2158 23.9128 21.2158C23.87 21.2158 23.7476 21.0732 23.6407 20.8988C23.4449 20.5795 23.3601 20.4629 23.1661 20.2467C23.108 20.1819 23.0604 20.0928 23.0604 20.0486C23.0604 20.0045 23.0034 19.921 22.9336 19.8631C22.7184 19.6845 22.7913 19.6095 23.1799 19.6095C23.5222 19.6095 23.5745 19.6393 23.811 19.9688C23.9527 20.1664 24.1051 20.3707 24.1494 20.4227C24.1937 20.4747 24.3971 20.7601 24.6014 21.0568C24.8055 21.3535 25.1778 21.8816 25.4285 22.2304C26.9339 24.3241 27.034 24.4432 27.034 24.1369C27.034 24.0694 27.0842 23.9838 27.1456 23.9466C27.2068 23.9094 27.3853 23.6888 27.5422 23.4563C27.7782 23.1065 28.7128 21.8224 28.9575 21.5117C29.414 20.9322 29.824 20.3517 29.824 20.2849C29.824 20.2389 29.8525 20.2011 29.8874 20.2007C29.9223 20.2004 30.0459 20.0578 30.1622 19.8837C30.3713 19.5706 30.4619 19.4468 30.6283 19.2472C30.6754 19.1907 30.9217 18.8782 31.1758 18.5527C31.4298 18.2272 31.6595 17.9419 31.686 17.9186C31.7126 17.8954 31.8259 17.7432 31.9376 17.5804C32.0494 17.4177 32.1662 17.2655 32.1973 17.2423C32.2284 17.219 32.4568 16.9337 32.705 16.6082C33.2347 15.9136 33.22 15.9322 33.5435 15.5514C33.6818 15.3886 33.7955 15.2325 33.7962 15.2044C33.797 15.1763 33.8832 15.0573 33.9878 14.9399C34.0924 14.8226 34.2715 14.6094 34.3857 14.466C34.8241 13.9157 34.6241 14.3078 33.9551 15.3096ZM6.87018 19.7786C6.89969 19.8716 6.95929 19.9477 7.00266 19.9477C7.04604 19.9477 7.08155 19.9872 7.08155 20.0356C7.08155 20.1185 7.3608 20.5503 7.54654 20.7548C7.59304 20.806 7.70633 20.9877 7.79823 21.1587C7.89021 21.3296 7.99479 21.4695 8.03073 21.4695C8.06666 21.4695 8.09608 21.509 8.09608 21.5574C8.09608 21.6575 8.44364 22.1735 8.53994 22.2163C8.57485 22.2318 8.60335 22.2808 8.60335 22.3254C8.60335 22.399 8.91811 22.8896 9.03055 22.9913C9.05625 23.0145 9.16836 23.1857 9.2797 23.3717C9.39105 23.5577 9.50518 23.7289 9.53334 23.7522C9.56149 23.7754 9.67562 23.9466 9.78697 24.1326C9.89831 24.3186 10.0124 24.4898 10.0406 24.5131C10.0688 24.5363 10.1842 24.7075 10.297 24.8935C10.41 25.0795 10.5495 25.2888 10.6071 25.3585C10.6648 25.4283 11.6048 26.8359 12.6961 28.4867C15.1144 32.1443 15.884 33.2896 16.0221 33.4356C16.0803 33.497 16.1278 33.5822 16.1278 33.6249C16.1278 33.6932 16.2173 33.8176 16.5489 34.211C16.5963 34.2671 16.6351 34.347 16.6351 34.3883C16.6351 34.4543 16.7257 34.5799 17.0562 34.9719C17.1036 35.028 17.1423 35.1109 17.1423 35.156C17.1423 35.2012 17.1904 35.2884 17.2491 35.3499C17.4275 35.5365 17.6577 35.9267 17.5881 35.9245C17.5522 35.9233 17.2755 35.5796 16.9732 35.1608C16.671 34.7419 16.3807 34.3506 16.328 34.2912C16.0395 33.9657 13.1687 30.08 13.1687 30.0151C13.1687 29.9727 13.1392 29.9254 13.1031 29.9098C13.067 29.8943 12.7161 29.4061 12.3233 28.8248C11.9305 28.2436 11.4178 27.4901 11.1842 27.1504C10.9505 26.8106 10.7212 26.4703 10.6747 26.394C10.5808 26.2401 10.4652 26.0813 10.3343 25.9262C10.2865 25.8698 9.98303 25.424 9.65964 24.9358C9.06986 24.045 8.98912 23.9311 8.79357 23.713C8.73549 23.6482 8.68789 23.5603 8.68789 23.5175C8.68789 23.4748 8.61248 23.3485 8.52041 23.2367C8.23617 22.8921 8.22323 22.8739 8.01331 22.5263C7.90103 22.3403 7.78673 22.1691 7.75942 22.1458C7.73212 22.1226 7.48279 21.7666 7.2054 21.3547L6.7011 20.6057L6.64935 22.6651C6.62086 23.7977 6.59229 26.0085 6.58595 27.5778L6.57428 30.4312H6.2361H5.89792V25.0203V19.6095H6.35725C6.74227 19.6095 6.82521 19.6368 6.87018 19.7786ZM22.1441 19.6513C22.1671 19.6743 22.1691 19.8074 22.1486 19.9472L22.1113 20.2013H18.8659H15.6205V22.3138V24.4264L18.643 24.4486L21.6655 24.4708L21.6917 24.7878L21.718 25.1049H18.6692H15.6205V27.4299V29.7548H18.9178H22.215V30.093V30.4312H18.5796H14.9442V25.0203V19.6095H18.5232C20.4917 19.6095 22.1211 19.6283 22.1441 19.6513ZM39.8848 19.9054V20.2013H37.9825H36.0803V25.3162V30.4312H35.7428H35.4053L35.3835 25.3374L35.3617 20.2436L33.4806 20.2208L31.5994 20.1981V19.9038V19.6095H35.7421H39.8848V19.9054ZM41.7921 27.3113C41.8237 27.3623 41.8428 27.8283 41.8345 28.3467C41.8213 29.1783 41.7984 29.3118 41.6406 29.4798C41.3734 29.7642 40.803 29.7471 40.5673 29.4475C40.4709 29.325 40.3921 29.1728 40.3921 29.1093C40.3921 28.9517 40.7843 28.9616 40.8454 29.1208C40.8738 29.1949 41.0005 29.2476 41.1503 29.2476H41.4066V28.3668C41.4066 27.8823 41.4297 27.4258 41.4579 27.3522C41.517 27.1983 41.7079 27.175 41.7921 27.3113ZM43.8038 27.4258C43.9268 27.5399 44.0275 27.692 44.0275 27.764C44.0275 27.9351 43.7196 27.934 43.6236 27.7625C43.5239 27.5844 42.8131 27.6247 42.7813 27.8103C42.7432 28.0323 42.8941 28.16 43.2511 28.2078C43.6943 28.2673 44.112 28.6248 44.112 28.9446C44.112 29.0877 44.0177 29.2704 43.8649 29.4232C43.6546 29.6334 43.5517 29.6703 43.1749 29.6703C42.784 29.6703 42.704 29.6388 42.4921 29.4014C42.3601 29.2536 42.252 29.1014 42.252 29.0633C42.252 28.9471 42.6475 28.986 42.7525 29.1125C42.9989 29.4095 43.6893 29.3223 43.6893 28.9942C43.6893 28.815 43.5878 28.7565 42.9407 28.5636C42.4952 28.4307 42.2952 28.1651 42.3678 27.8023C42.4432 27.4253 42.7274 27.2247 43.1908 27.2213C43.4893 27.2192 43.6322 27.2669 43.8038 27.4258ZM39.9605 29.2403C40.1015 29.3296 40.0285 29.5683 39.8379 29.6415C39.7635 29.67 39.6422 29.6331 39.5684 29.5593C39.4579 29.4487 39.4535 29.4021 39.5431 29.2941C39.6657 29.1465 39.7875 29.1307 39.9605 29.2403Z" fill="white"/>
</svg>
