<svg width="50" height="50" viewBox="0 0 50 50" fill="none" xmlns="http://www.w3.org/2000/svg">
<g clip-path="url(#clip0_6_17)">
<path fill-rule="evenodd" clip-rule="evenodd" d="M0 4.29639V45.8724C0.225141 46.2476 0.225154 46.7355 0.600389 47.4296C0.982327 48.1226 1.52016 48.7172 2.17139 49.1665C2.82261 49.6159 3.56938 49.9076 4.35273 50.0187H45.3096C45.8305 49.8827 46.344 49.7199 46.848 49.5309C47.3112 49.3331 47.727 49.0389 48.0676 48.6679C48.7853 48.0137 49.2723 47.145 49.4559 46.1914L49.5685 45.985V4.35268C49.3996 3.92116 49.3433 3.28329 49.0807 2.68291C48.711 1.97156 48.1784 1.35769 47.5263 0.891422C46.8742 0.425154 46.121 0.119717 45.3283 0H4.25895C3.84619 0.225141 3.2458 0.225099 2.66419 0.544049C1.74883 1.01449 1.00647 1.76345 0.544106 2.68291C0.225157 3.28329 0.225141 3.86487 0 4.29639Z" fill="#3576BB"/>
<path fill-rule="evenodd" clip-rule="evenodd" d="M30.6942 40.0188V44.5404C30.8068 44.9719 32.8143 45.4409 33.1332 45.4972C34.1338 45.7086 35.1506 45.8341 36.1726 45.8724C38.1898 46.008 40.2113 45.6807 42.0826 44.9156C42.8629 44.589 43.5514 44.0763 44.0878 43.4221C44.6241 42.768 44.9921 41.9924 45.1595 41.1632C45.4305 40.241 45.4904 39.2697 45.3345 38.3212C45.1785 37.3728 44.8109 36.4717 44.259 35.6848C42.289 33.0582 37.1858 32.3077 35.9662 30.3189C35.7299 29.9389 35.6469 29.4833 35.734 29.0444C35.821 28.6054 36.0718 28.216 36.4353 27.955C38.0863 26.6604 41.4447 27.2045 43.4147 28.0676C43.8274 28.2739 44.1464 28.4991 44.4653 28.6492V24.0713C40.2627 22.3452 31.3321 22.6266 30.5816 28.9118C29.7374 36.7917 40.1689 35.7786 40.2064 39.8124C40.2064 42.6079 34.8406 42.6079 31.7636 40.7129C31.3884 40.4503 31.0694 40.2439 30.6942 40.0188Z" fill="white"/>
<path fill-rule="evenodd" clip-rule="evenodd" d="M11.4446 27.8236C12.7204 27.9174 16.0788 27.8236 17.6173 27.8236V45.6661C18.349 45.7786 21.5948 45.6661 22.5516 45.6661V27.8236H28.7242V23.8086H11.4446V27.8236Z" fill="white"/>
</g>
<defs>
<clipPath id="clip0_6_17">
<rect width="49.5122" height="50" fill="white"/>
</clipPath>
</defs>
</svg>
